<svg id="visual" viewBox="0 0 960 540" width="960" height="540" xmlns="http://www.w3.org/2000/svg" xmlns:xlink="http://www.w3.org/1999/xlink" version="1.1"><rect x="0" y="0" width="960" height="540" fill="#fff3c0"></rect><defs><linearGradient id="grad1_0" x1="43.8%" y1="0%" x2="100%" y2="100%"><stop offset="14.444444444444446%" stop-color="#ffde9e" stop-opacity="1"></stop><stop offset="85.55555555555554%" stop-color="#ffde9e" stop-opacity="1"></stop></linearGradient></defs><defs><linearGradient id="grad1_1" x1="43.8%" y1="0%" x2="100%" y2="100%"><stop offset="14.444444444444446%" stop-color="#ffde9e" stop-opacity="1"></stop><stop offset="85.55555555555554%" stop-color="#fff3c0" stop-opacity="1"></stop></linearGradient></defs><defs><linearGradient id="grad2_0" x1="0%" y1="0%" x2="56.3%" y2="100%"><stop offset="14.444444444444446%" stop-color="#ffde9e" stop-opacity="1"></stop><stop offset="85.55555555555554%" stop-color="#ffde9e" stop-opacity="1"></stop></linearGradient></defs><defs><linearGradient id="grad2_1" x1="0%" y1="0%" x2="56.3%" y2="100%"><stop offset="14.444444444444446%" stop-color="#fff3c0" stop-opacity="1"></stop><stop offset="85.55555555555554%" stop-color="#ffde9e" stop-opacity="1"></stop></linearGradient></defs><g transform="translate(960, 0)"><path d="M0 486C-28 456.2 -56 426.4 -81.4 409C-106.7 391.6 -129.3 386.7 -162.3 391.7C-195.2 396.7 -238.4 411.7 -270 404.1C-301.6 396.5 -321.5 366.3 -336.6 336.6C-351.7 306.9 -362 277.7 -375.8 251.1C-389.7 224.5 -407 200.6 -421.3 174.5C-435.6 148.5 -446.8 120.3 -457 90.9C-467.3 61.5 -476.7 30.7 -486 0L0 0Z" fill="#fee9af"></path><path d="M0 243C-14 228.1 -28 213.2 -40.7 204.5C-53.3 195.8 -64.7 193.4 -81.1 195.9C-97.6 198.4 -119.2 205.9 -135 202C-150.8 198.2 -160.7 183.1 -168.3 168.3C-175.8 153.4 -181 138.9 -187.9 125.6C-194.8 112.3 -203.5 100.3 -210.6 87.3C-217.8 74.2 -223.4 60.2 -228.5 45.5C-233.7 30.7 -238.3 15.4 -243 0L0 0Z" fill="#ffde9e"></path></g><g transform="translate(0, 540)"><path d="M0 -486C36.6 -492.3 73.2 -498.6 90.9 -457C108.6 -415.5 107.4 -326.2 122.8 -296.6C138.2 -266.9 170.2 -297 213.3 -319.3C256.5 -341.6 310.8 -356 343.7 -343.7C376.5 -331.3 387.9 -292 375 -250.6C362.1 -209.1 324.8 -165.4 340 -140.8C355.2 -116.3 423 -111 456.1 -90.7C489.2 -70.4 487.6 -35.2 486 0L0 0Z" fill="#fee9af"></path><path d="M0 -243C18.3 -246.1 36.6 -249.3 45.5 -228.5C54.3 -207.8 53.7 -163.1 61.4 -148.3C69.1 -133.5 85.1 -148.5 106.7 -159.6C128.2 -170.8 155.4 -178 171.8 -171.8C188.3 -165.6 194 -146 187.5 -125.3C181 -104.5 162.4 -82.7 170 -70.4C177.6 -58.2 211.5 -55.5 228 -45.4C244.6 -35.2 243.8 -17.6 243 0L0 0Z" fill="#ffde9e"></path></g></svg>