<svg id="visual" viewBox="0 0 900 600" width="900" height="600" xmlns="http://www.w3.org/2000/svg" xmlns:xlink="http://www.w3.org/1999/xlink" version="1.1"><rect x="0" y="0" width="900" height="600" fill="#ffde9e"></rect><g transform="translate(465.1777582676633 277.760668473621)"><path d="M40.4 -44.8C56.6 -34.5 77.1 -25.8 89.2 -8.1C101.4 9.5 105.2 36.3 97.3 61.8C89.3 87.4 69.4 111.8 47.3 112.1C25.2 112.4 0.8 88.6 -27.7 77.6C-56.1 66.6 -88.7 68.3 -109.4 53.1C-130.1 38 -138.9 6 -125.2 -13.5C-111.6 -32.9 -75.4 -39.8 -50.8 -48.7C-26.1 -57.5 -13.1 -68.2 -0.5 -67.6C12.1 -67 24.1 -55.1 40.4 -44.8" fill="#fff3c0"></path></g></svg>