<svg id="visual" viewBox="0 0 900 600" width="900" height="600" xmlns="http://www.w3.org/2000/svg" xmlns:xlink="http://www.w3.org/1999/xlink" version="1.1"><rect width="900" height="600" fill="#fff3c0"></rect><g><g transform="translate(464 258)"><path d="M35.5 -44C44.4 -34.8 49.1 -22.1 50.8 -9.4C52.5 3.3 51.3 16.1 46 27.8C40.7 39.4 31.4 50 19.4 55.2C7.4 60.4 -7.2 60.2 -20.7 55.8C-34.1 51.3 -46.4 42.6 -51.3 31.1C-56.2 19.6 -53.7 5.3 -50.3 -8C-46.8 -21.2 -42.5 -33.3 -34 -42.7C-25.4 -52 -12.7 -58.5 0.3 -58.8C13.3 -59.1 26.5 -53.3 35.5 -44Z" fill="none" stroke="#ffde9e" stroke-width="20"></path></g><g transform="translate(807 132)"><path d="M25.7 -31.9C32.7 -24.7 37.4 -16.1 39 -6.9C40.6 2.3 39.1 12 35.1 21.4C31 30.7 24.3 39.6 15.4 43.2C6.5 46.8 -4.6 45 -13.5 40.3C-22.5 35.7 -29.2 28.2 -33.7 19.8C-38.2 11.3 -40.4 1.9 -38.7 -6.8C-37.1 -15.4 -31.7 -23.4 -24.6 -30.5C-17.5 -37.7 -8.8 -44 0.3 -44.4C9.3 -44.7 18.7 -39 25.7 -31.9Z" fill="none" stroke="#ffde9e" stroke-width="20"></path></g><g transform="translate(791 504)"><path d="M30.7 -35.1C39.3 -29.4 45.5 -19.2 46.6 -8.8C47.7 1.6 43.7 12.3 38 21.6C32.2 30.9 24.6 38.8 15.2 42.5C5.9 46.1 -5.3 45.6 -14.2 41.3C-23.1 37 -29.8 29.1 -35.7 20.1C-41.5 11.1 -46.4 1 -45.9 -9.2C-45.5 -19.5 -39.7 -29.9 -31.1 -35.6C-22.6 -41.4 -11.3 -42.3 -0.1 -42.2C11 -42 22.1 -40.8 30.7 -35.1Z" fill="none" stroke="#ffde9e" stroke-width="20"></path></g><g transform="translate(669 67)"><path d="M30 -36.5C38.5 -28.7 44.5 -18.8 46.6 -8.1C48.6 2.7 46.7 14.2 41.6 24.9C36.5 35.6 28.3 45.3 17.7 49.6C7.1 53.9 -5.8 52.7 -16.8 47.9C-27.9 43.2 -37 34.9 -41.9 24.9C-46.8 14.9 -47.4 3.2 -44.7 -7.1C-42 -17.5 -35.9 -26.5 -27.9 -34.4C-19.9 -42.3 -9.9 -49 0.4 -49.5C10.8 -50 21.6 -44.3 30 -36.5Z" stroke="#ffde9e" fill="none" stroke-width="20"></path></g><g transform="translate(612 223)"><path d="M32.2 -37.1C41.9 -30.3 49.9 -20.2 52.1 -9C54.2 2.2 50.4 14.6 43.9 24.8C37.3 35 28 43.1 17.6 45.9C7.2 48.6 -4.3 46 -15.5 42.1C-26.6 38.2 -37.4 33 -43 24.3C-48.6 15.7 -48.9 3.5 -45.9 -7.1C-42.9 -17.8 -36.5 -26.8 -28.3 -34C-20.1 -41.1 -10 -46.3 0.6 -47C11.3 -47.7 22.5 -44 32.2 -37.1Z" stroke="#ffde9e" fill="none" stroke-width="20"></path></g><g transform="translate(32 286)"><path d="M32.5 -39.1C40.9 -31.7 45.7 -20.3 47 -8.9C48.4 2.6 46.3 14.1 41.4 25.1C36.5 36.2 28.7 46.8 17.8 52C7 57.2 -6.8 57.1 -18.4 52.2C-30 47.3 -39.2 37.6 -44.3 26.7C-49.3 15.7 -50.1 3.4 -48.4 -9C-46.8 -21.3 -42.6 -33.6 -34.1 -41C-25.7 -48.5 -12.8 -51.1 -0.4 -50.6C12 -50.1 24.1 -46.6 32.5 -39.1Z" stroke="#ffde9e" fill="none" stroke-width="20"></path></g><g transform="translate(557 386)"><path d="M36.7 -44.4C45.9 -35.9 50.7 -22.9 51.4 -10.3C52.1 2.2 48.7 14.2 42.8 24.9C36.8 35.6 28.3 45 17 51.1C5.6 57.2 -8.6 59.9 -20.6 55.8C-32.5 51.8 -42.2 40.9 -46.7 29C-51.2 17.1 -50.4 4.2 -47.4 -7.6C-44.4 -19.3 -39.2 -29.9 -30.9 -38.6C-22.6 -47.2 -11.3 -53.9 1.2 -55.4C13.7 -56.8 27.4 -52.9 36.7 -44.4Z" stroke="#ffde9e" fill="none" stroke-width="20"></path></g><g transform="translate(21 499)"><path d="M35.9 -43.8C45.6 -34.7 51.9 -22.5 52.8 -10.3C53.7 1.8 49.4 13.9 42.9 24.5C36.5 35.1 28 44.3 16.8 50C5.7 55.7 -8.1 57.9 -20.1 54.1C-32.2 50.3 -42.4 40.3 -48.5 28.6C-54.6 16.9 -56.4 3.3 -53 -8.1C-49.5 -19.6 -40.8 -28.9 -31.1 -38C-21.3 -47.1 -10.7 -56.1 1.2 -57.6C13.1 -59.1 26.2 -53 35.9 -43.8Z" stroke="#ffde9e" fill="none" stroke-width="20"></path></g><g transform="translate(747 256)"><path d="M32.2 -37.8C40.9 -31.1 46.5 -20.1 48.2 -8.8C49.9 2.6 47.7 14.5 42.4 25.1C37 35.8 28.5 45.3 18.1 48.5C7.7 51.8 -4.5 48.8 -15.7 44.2C-27 39.7 -37.3 33.6 -43.6 24.4C-50 15.1 -52.3 2.8 -50 -8.6C-47.8 -20 -41.1 -30.5 -32 -37.1C-22.9 -43.6 -11.4 -46.4 0.2 -46.6C11.8 -46.8 23.5 -44.4 32.2 -37.8Z" stroke="#ffde9e" fill="none" stroke-width="20"></path></g><g transform="translate(346 439)"><path d="M28.3 -33.8C35.1 -28 37.8 -17.6 40 -6.8C42.2 3.9 43.8 15.1 39.5 23.2C35.3 31.3 25.2 36.5 15 39.4C4.8 42.4 -5.6 43.1 -14 39.6C-22.4 36.1 -28.9 28.2 -33.6 19.6C-38.3 11 -41.1 1.6 -40.9 -8.5C-40.6 -18.6 -37.2 -29.5 -29.9 -35.2C-22.6 -40.8 -11.3 -41.3 -0.3 -41C10.8 -40.7 21.5 -39.6 28.3 -33.8Z" stroke="#ffde9e" fill="none" stroke-width="20"></path></g></g></svg>