<svg id="visual" viewBox="0 0 900 450" width="900" height="450" xmlns="http://www.w3.org/2000/svg" xmlns:xlink="http://www.w3.org/1999/xlink" version="1.1"><rect x="0" y="0" width="900" height="450" fill="#ffde9e"></rect><defs><linearGradient id="grad1_0" x1="50%" y1="100%" x2="100%" y2="0%"><stop offset="10%" stop-color="#ffde9e" stop-opacity="1"></stop><stop offset="90%" stop-color="#ffde9e" stop-opacity="1"></stop></linearGradient></defs><defs><linearGradient id="grad2_0" x1="0%" y1="100%" x2="50%" y2="0%"><stop offset="10%" stop-color="#ffde9e" stop-opacity="1"></stop><stop offset="90%" stop-color="#ffde9e" stop-opacity="1"></stop></linearGradient></defs><g transform="translate(900, 450)"><path d="M-337.5 0C-291 -25.8 -244.5 -51.7 -235.6 -97.6C-226.7 -143.5 -255.5 -209.4 -238.6 -238.6C-221.8 -267.9 -159.5 -260.3 -112.1 -270.7C-64.8 -281 -32.4 -309.3 0 -337.5L0 0Z" fill="#ffe8d6"></path></g><g transform="translate(0, 0)"><path d="M337.5 0C339.7 50.9 341.8 101.8 311.8 129.2C281.8 156.5 219.6 160.2 185.3 185.3C150.9 210.3 144.5 256.6 118.2 285.5C92 314.4 46 325.9 0 337.5L0 0Z" fill="#ffe8d6"></path></g></svg>