<svg id="visual" viewBox="0 0 960 540" width="960" height="540" xmlns="http://www.w3.org/2000/svg" xmlns:xlink="http://www.w3.org/1999/xlink" version="1.1"><rect x="0" y="0" width="960" height="540" fill="#fff3c0"></rect><defs><linearGradient id="grad1_0" x1="43.8%" y1="100%" x2="100%" y2="0%"><stop offset="14.444444444444446%" stop-color="#ffde9e" stop-opacity="1"></stop><stop offset="85.55555555555554%" stop-color="#ffde9e" stop-opacity="1"></stop></linearGradient></defs><defs><linearGradient id="grad1_1" x1="43.8%" y1="100%" x2="100%" y2="0%"><stop offset="14.444444444444446%" stop-color="#ffde9e" stop-opacity="1"></stop><stop offset="85.55555555555554%" stop-color="#fff3c0" stop-opacity="1"></stop></linearGradient></defs><defs><linearGradient id="grad2_0" x1="0%" y1="100%" x2="56.3%" y2="0%"><stop offset="14.444444444444446%" stop-color="#ffde9e" stop-opacity="1"></stop><stop offset="85.55555555555554%" stop-color="#ffde9e" stop-opacity="1"></stop></linearGradient></defs><defs><linearGradient id="grad2_1" x1="0%" y1="100%" x2="56.3%" y2="0%"><stop offset="14.444444444444446%" stop-color="#fff3c0" stop-opacity="1"></stop><stop offset="85.55555555555554%" stop-color="#ffde9e" stop-opacity="1"></stop></linearGradient></defs><g transform="translate(960, 540)"><path d="M-486 0C-489.6 -34.2 -493.1 -68.4 -476.7 -94.8C-460.2 -121.3 -423.8 -140 -413.9 -171.4C-404 -202.9 -420.7 -247.2 -403.3 -269.5C-385.8 -291.7 -334.3 -291.9 -299.1 -299.1C-264 -306.3 -245.2 -320.5 -221.1 -330.9C-197 -341.4 -167.5 -348 -140.1 -338.1C-112.7 -328.2 -87.4 -301.8 -64.4 -323.7C-41.4 -345.5 -20.7 -415.8 0 -486L0 0Z" fill="#fee9af"></path><path d="M-243 0C-244.8 -17.1 -246.6 -34.2 -238.3 -47.4C-230.1 -60.6 -211.9 -70 -206.9 -85.7C-202 -101.5 -210.4 -123.6 -201.6 -134.7C-192.9 -145.8 -167.1 -146 -149.6 -149.6C-132 -153.2 -122.6 -160.2 -110.6 -165.5C-98.5 -170.7 -83.7 -174 -70 -169.1C-56.3 -164.1 -43.7 -150.9 -32.2 -161.8C-20.7 -172.8 -10.3 -207.9 0 -243L0 0Z" fill="#ffde9e"></path></g><g transform="translate(0, 0)"><path d="M486 0C395.5 12.7 305 25.4 316.8 63C328.5 100.6 442.5 163.2 449 186C455.5 208.8 354.6 191.9 327.6 218.9C300.6 245.9 347.7 316.7 333.8 333.8C319.8 350.8 245 314 203.3 304.3C161.7 294.6 153.3 311.9 140.1 338.1C126.8 364.4 108.8 399.5 84.7 425.7C60.5 451.8 30.3 468.9 0 486L0 0Z" fill="#fee9af"></path><path d="M243 0C197.8 6.3 152.5 12.7 158.4 31.5C164.3 50.3 221.2 81.6 224.5 93C227.8 104.4 177.3 96 163.8 109.4C150.3 122.9 173.8 158.4 166.9 166.9C159.9 175.4 122.5 157 101.7 152.2C80.8 147.3 76.6 156 70 169.1C63.4 182.2 54.4 199.8 42.3 212.8C30.3 225.9 15.1 234.4 0 243L0 0Z" fill="#ffde9e"></path></g></svg>