<svg id="visual" viewBox="0 0 960 540" width="960" height="540" xmlns="http://www.w3.org/2000/svg" xmlns:xlink="http://www.w3.org/1999/xlink" version="1.1"><rect x="0" y="0" width="960" height="540" fill="#fff3c0"></rect><defs><linearGradient id="grad1_0" x1="43.8%" y1="100%" x2="100%" y2="0%"><stop offset="14.444444444444446%" stop-color="#ffde9e" stop-opacity="1"></stop><stop offset="85.55555555555554%" stop-color="#ffde9e" stop-opacity="1"></stop></linearGradient></defs><defs><linearGradient id="grad1_1" x1="43.8%" y1="100%" x2="100%" y2="0%"><stop offset="14.444444444444446%" stop-color="#ffde9e" stop-opacity="1"></stop><stop offset="85.55555555555554%" stop-color="#fee9af" stop-opacity="1"></stop></linearGradient></defs><defs><linearGradient id="grad1_2" x1="43.8%" y1="100%" x2="100%" y2="0%"><stop offset="14.444444444444446%" stop-color="#fff3c0" stop-opacity="1"></stop><stop offset="85.55555555555554%" stop-color="#fee9af" stop-opacity="1"></stop></linearGradient></defs><defs><linearGradient id="grad2_0" x1="0%" y1="100%" x2="56.3%" y2="0%"><stop offset="14.444444444444446%" stop-color="#ffde9e" stop-opacity="1"></stop><stop offset="85.55555555555554%" stop-color="#ffde9e" stop-opacity="1"></stop></linearGradient></defs><defs><linearGradient id="grad2_1" x1="0%" y1="100%" x2="56.3%" y2="0%"><stop offset="14.444444444444446%" stop-color="#fee9af" stop-opacity="1"></stop><stop offset="85.55555555555554%" stop-color="#ffde9e" stop-opacity="1"></stop></linearGradient></defs><defs><linearGradient id="grad2_2" x1="0%" y1="100%" x2="56.3%" y2="0%"><stop offset="14.444444444444446%" stop-color="#fee9af" stop-opacity="1"></stop><stop offset="85.55555555555554%" stop-color="#fff3c0" stop-opacity="1"></stop></linearGradient></defs><g transform="translate(960, 540)"><path d="M-486 0C-477.5 -54.3 -469.1 -108.7 -437.5 -142.1C-405.9 -175.6 -351.2 -188.3 -330.1 -239.8C-309 -291.3 -321.4 -381.7 -285.7 -393.2C-249.9 -404.7 -166 -337.2 -110.3 -339.5C-54.7 -341.8 -27.3 -413.9 0 -486L0 0Z" fill="#ffeeb7"></path><path d="M-324 0C-318.4 -36.2 -312.7 -72.4 -291.7 -94.8C-270.6 -117.1 -234.1 -125.5 -220.1 -159.9C-206 -194.2 -214.3 -254.5 -190.4 -262.1C-166.6 -269.8 -110.6 -224.8 -73.5 -226.4C-36.4 -227.9 -18.2 -275.9 0 -324L0 0Z" fill="#ffe3a6"></path><path d="M-162 0C-159.2 -18.1 -156.4 -36.2 -145.8 -47.4C-135.3 -58.5 -117.1 -62.8 -110 -79.9C-103 -97.1 -107.1 -127.2 -95.2 -131.1C-83.3 -134.9 -55.3 -112.4 -36.8 -113.2C-18.2 -113.9 -9.1 -138 0 -162L0 0Z" fill="#ffde9e"></path></g><g transform="translate(0, 0)"><path d="M486 0C423.3 31.4 360.6 62.8 350 113.7C339.4 164.6 380.9 234.9 363.2 263.9C345.6 292.9 268.9 280.6 228.1 313.9C187.2 347.2 182.2 425.9 150.2 462.2C118.1 498.5 59.1 492.2 0 486L0 0Z" fill="#ffeeb7"></path><path d="M324 0C282.2 20.9 240.4 41.9 233.3 75.8C226.3 109.7 253.9 156.6 242.2 175.9C230.4 195.3 179.3 187.1 152 209.3C124.8 231.4 121.5 284 100.1 308.1C78.8 332.3 39.4 328.2 0 324L0 0Z" fill="#ffe3a6"></path><path d="M162 0C141.1 10.5 120.2 20.9 116.7 37.9C113.1 54.9 127 78.3 121.1 88C115.2 97.6 89.6 93.5 76 104.6C62.4 115.7 60.7 142 50.1 154.1C39.4 166.2 19.7 164.1 0 162L0 0Z" fill="#ffde9e"></path></g></svg>