<svg id="visual" viewBox="0 0 960 540" width="960" height="540" xmlns="http://www.w3.org/2000/svg" xmlns:xlink="http://www.w3.org/1999/xlink" version="1.1"><rect x="0" y="0" width="960" height="540" fill="#fff3c0"></rect><defs><linearGradient id="grad1_0" x1="43.8%" y1="0%" x2="100%" y2="100%"><stop offset="14.444444444444446%" stop-color="#ffde9e" stop-opacity="1"></stop><stop offset="85.55555555555554%" stop-color="#ffde9e" stop-opacity="1"></stop></linearGradient></defs><defs><linearGradient id="grad1_1" x1="43.8%" y1="0%" x2="100%" y2="100%"><stop offset="14.444444444444446%" stop-color="#ffde9e" stop-opacity="1"></stop><stop offset="85.55555555555554%" stop-color="#fff3c0" stop-opacity="1"></stop></linearGradient></defs><defs><linearGradient id="grad2_0" x1="0%" y1="0%" x2="56.3%" y2="100%"><stop offset="14.444444444444446%" stop-color="#ffde9e" stop-opacity="1"></stop><stop offset="85.55555555555554%" stop-color="#ffde9e" stop-opacity="1"></stop></linearGradient></defs><defs><linearGradient id="grad2_1" x1="0%" y1="0%" x2="56.3%" y2="100%"><stop offset="14.444444444444446%" stop-color="#fff3c0" stop-opacity="1"></stop><stop offset="85.55555555555554%" stop-color="#ffde9e" stop-opacity="1"></stop></linearGradient></defs><g transform="translate(960, 0)"><path d="M0 486C-34.2 489.6 -68.4 493.1 -94.8 476.7C-121.3 460.2 -140 423.8 -171.4 413.9C-202.9 404 -247.2 420.7 -269.5 403.3C-291.7 385.8 -291.9 334.3 -299.1 299.1C-306.3 264 -320.5 245.2 -330.9 221.1C-341.4 197 -348 167.5 -338.1 140.1C-328.2 112.7 -301.8 87.4 -323.7 64.4C-345.5 41.4 -415.8 20.7 -486 0L0 0Z" fill="#fee9af"></path><path d="M0 243C-17.1 244.8 -34.2 246.6 -47.4 238.3C-60.6 230.1 -70 211.9 -85.7 206.9C-101.5 202 -123.6 210.4 -134.7 201.6C-145.8 192.9 -146 167.1 -149.6 149.6C-153.2 132 -160.2 122.6 -165.5 110.6C-170.7 98.5 -174 83.7 -169.1 70C-164.1 56.3 -150.9 43.7 -161.8 32.2C-172.8 20.7 -207.9 10.3 -243 0L0 0Z" fill="#ffde9e"></path></g><g transform="translate(0, 540)"><path d="M0 -486C12.7 -395.5 25.4 -305 63 -316.8C100.6 -328.5 163.2 -442.5 186 -449C208.8 -455.5 191.9 -354.6 218.9 -327.6C245.9 -300.6 316.7 -347.7 333.8 -333.8C350.8 -319.8 314 -245 304.3 -203.3C294.6 -161.7 311.9 -153.3 338.1 -140.1C364.4 -126.8 399.5 -108.8 425.7 -84.7C451.8 -60.5 468.9 -30.3 486 0L0 0Z" fill="#fee9af"></path><path d="M0 -243C6.3 -197.8 12.7 -152.5 31.5 -158.4C50.3 -164.3 81.6 -221.2 93 -224.5C104.4 -227.8 96 -177.3 109.4 -163.8C122.9 -150.3 158.4 -173.8 166.9 -166.9C175.4 -159.9 157 -122.5 152.2 -101.7C147.3 -80.8 156 -76.6 169.1 -70C182.2 -63.4 199.8 -54.4 212.8 -42.3C225.9 -30.3 234.4 -15.1 243 0L0 0Z" fill="#ffde9e"></path></g></svg>