<svg id="visual" viewBox="0 0 900 600" width="900" height="600" xmlns="http://www.w3.org/2000/svg" xmlns:xlink="http://www.w3.org/1999/xlink" version="1.1"><g stroke-width="1" stroke-linejoin="bevel"><path d="M418 302L482 342L482 312Z" fill="#fee9af" stroke="#fee9af"></path><path d="M418 302L417 369L482 342Z" fill="#fee9af" stroke="#fee9af"></path><path d="M482 312L460 248L418 302Z" fill="#fee5a8" stroke="#fee5a8"></path><path d="M463 430L534 362L482 342Z" fill="#ffde9e" stroke="#ffde9e"></path><path d="M482 342L534 362L482 312Z" fill="#ffde9e" stroke="#ffde9e"></path><path d="M482 312L536 291L460 248Z" fill="#fee9af" stroke="#fee9af"></path><path d="M343 287L357 355L418 302Z" fill="#fee2a5" stroke="#fee2a5"></path><path d="M418 302L357 355L417 369Z" fill="#feefb9" stroke="#feefb9"></path><path d="M460 248L417 237L418 302Z" fill="#ffe0a1" stroke="#ffe0a1"></path><path d="M534 362L536 291L482 312Z" fill="#ffde9e" stroke="#ffde9e"></path><path d="M402 429L463 430L417 369Z" fill="#fee9af" stroke="#fee9af"></path><path d="M417 369L463 430L482 342Z" fill="#feedb6" stroke="#feedb6"></path><path d="M368 231L343 287L418 302Z" fill="#fff1bd" stroke="#fff1bd"></path><path d="M357 355L402 429L417 369Z" fill="#feebb2" stroke="#feebb2"></path><path d="M417 237L368 231L418 302Z" fill="#fee7ac" stroke="#fee7ac"></path><path d="M613 294L550 256L536 291Z" fill="#fee5a8" stroke="#fee5a8"></path><path d="M536 291L550 256L460 248Z" fill="#ffde9e" stroke="#ffde9e"></path><path d="M460 248L471 181L417 237Z" fill="#ffe0a1" stroke="#ffe0a1"></path><path d="M309 377L362 436L357 355Z" fill="#fff3c0" stroke="#fff3c0"></path><path d="M357 355L362 436L402 429Z" fill="#fff3c0" stroke="#fff3c0"></path><path d="M402 429L438 465L463 430Z" fill="#fee5a8" stroke="#fee5a8"></path><path d="M356 472L438 465L402 429Z" fill="#fee7ac" stroke="#fee7ac"></path><path d="M463 430L539 431L534 362Z" fill="#ffde9e" stroke="#ffde9e"></path><path d="M488 477L539 431L463 430Z" fill="#feebb2" stroke="#feebb2"></path><path d="M534 362L613 294L536 291Z" fill="#fee2a5" stroke="#fee2a5"></path><path d="M282 227L305 311L343 287Z" fill="#feefb9" stroke="#feefb9"></path><path d="M343 287L305 311L357 355Z" fill="#fee7ac" stroke="#fee7ac"></path><path d="M305 311L309 377L357 355Z" fill="#fff1bd" stroke="#fff1bd"></path><path d="M550 256L471 181L460 248Z" fill="#feebb2" stroke="#feebb2"></path><path d="M417 237L369 188L368 231Z" fill="#fee9af" stroke="#fee9af"></path><path d="M471 181L423 176L417 237Z" fill="#fee9af" stroke="#fee9af"></path><path d="M438 465L488 477L463 430Z" fill="#fee5a8" stroke="#fee5a8"></path><path d="M423 176L369 188L417 237Z" fill="#fee5a8" stroke="#fee5a8"></path><path d="M368 231L282 227L343 287Z" fill="#fff1bd" stroke="#fff1bd"></path><path d="M488 477L547 461L539 431Z" fill="#fee9af" stroke="#fee9af"></path><path d="M580 431L609 371L534 362Z" fill="#ffe0a1" stroke="#ffe0a1"></path><path d="M580 431L534 362L539 431Z" fill="#fee7ac" stroke="#fee7ac"></path><path d="M547 461L580 431L539 431Z" fill="#ffe0a1" stroke="#ffe0a1"></path><path d="M609 371L613 294L534 362Z" fill="#fee5a8" stroke="#fee5a8"></path><path d="M550 256L543 164L471 181Z" fill="#feefb9" stroke="#feefb9"></path><path d="M303 425L356 472L362 436Z" fill="#fee9af" stroke="#fee9af"></path><path d="M362 436L356 472L402 429Z" fill="#ffde9e" stroke="#ffde9e"></path><path d="M438 465L433 536L488 477Z" fill="#fff1bd" stroke="#fff1bd"></path><path d="M256 401L303 425L309 377Z" fill="#ffde9e" stroke="#ffde9e"></path><path d="M309 377L303 425L362 436Z" fill="#ffde9e" stroke="#ffde9e"></path><path d="M586 198L543 164L550 256Z" fill="#fee2a5" stroke="#fee2a5"></path><path d="M471 181L471 130L423 176Z" fill="#feedb6" stroke="#feedb6"></path><path d="M618 224L586 198L550 256Z" fill="#fff3c0" stroke="#fff3c0"></path><path d="M369 188L282 227L368 231Z" fill="#fee9af" stroke="#fee9af"></path><path d="M227 374L256 401L309 377Z" fill="#feedb6" stroke="#feedb6"></path><path d="M609 371L641 311L613 294Z" fill="#fff3c0" stroke="#fff3c0"></path><path d="M613 294L618 224L550 256Z" fill="#fff1bd" stroke="#fff1bd"></path><path d="M666 348L641 311L609 371Z" fill="#fee9af" stroke="#fee9af"></path><path d="M543 164L471 130L471 181Z" fill="#fee2a5" stroke="#fee2a5"></path><path d="M423 176L373 125L369 188Z" fill="#fee7ac" stroke="#fee7ac"></path><path d="M369 188L300 163L282 227Z" fill="#fee2a5" stroke="#fee2a5"></path><path d="M651 258L618 224L613 294Z" fill="#ffde9e" stroke="#ffde9e"></path><path d="M239 312L309 377L305 311Z" fill="#fee9af" stroke="#fee9af"></path><path d="M289 478L372 532L356 472Z" fill="#feebb2" stroke="#feebb2"></path><path d="M471 130L428 122L423 176Z" fill="#fee2a5" stroke="#fee2a5"></path><path d="M547 461L590 475L580 431Z" fill="#ffde9e" stroke="#ffde9e"></path><path d="M580 431L677 408L609 371Z" fill="#fee5a8" stroke="#fee5a8"></path><path d="M534 545L590 475L547 461Z" fill="#feefb9" stroke="#feefb9"></path><path d="M282 227L239 312L305 311Z" fill="#fee9af" stroke="#fee9af"></path><path d="M372 532L438 465L356 472Z" fill="#fee7ac" stroke="#fee7ac"></path><path d="M372 532L433 536L438 465Z" fill="#feebb2" stroke="#feebb2"></path><path d="M488 477L534 545L547 461Z" fill="#fee9af" stroke="#fee9af"></path><path d="M428 122L373 125L423 176Z" fill="#feefb9" stroke="#feefb9"></path><path d="M641 311L651 258L613 294Z" fill="#ffde9e" stroke="#ffde9e"></path><path d="M433 536L488 539L488 477Z" fill="#fff3c0" stroke="#fff3c0"></path><path d="M289 478L356 472L303 425Z" fill="#fee9af" stroke="#fee9af"></path><path d="M256 401L289 478L303 425Z" fill="#feebb2" stroke="#feebb2"></path><path d="M677 408L666 348L609 371Z" fill="#fff1bd" stroke="#fff1bd"></path><path d="M641 311L721 307L651 258Z" fill="#fee9af" stroke="#fee9af"></path><path d="M373 125L300 163L369 188Z" fill="#fff1bd" stroke="#fff1bd"></path><path d="M282 227L244 220L239 312Z" fill="#ffde9e" stroke="#ffde9e"></path><path d="M239 312L227 374L309 377Z" fill="#fee2a5" stroke="#fee2a5"></path><path d="M256 401L240 482L289 478Z" fill="#feedb6" stroke="#feedb6"></path><path d="M245 171L244 220L282 227Z" fill="#feedb6" stroke="#feedb6"></path><path d="M239 312L185 340L227 374Z" fill="#ffe0a1" stroke="#ffe0a1"></path><path d="M492 600L534 545L488 539Z" fill="#fee2a5" stroke="#fee2a5"></path><path d="M488 539L534 545L488 477Z" fill="#fee9af" stroke="#fee9af"></path><path d="M492 600L488 539L433 536Z" fill="#fee9af" stroke="#fee9af"></path><path d="M599 103L532 105L543 164Z" fill="#fee5a8" stroke="#fee5a8"></path><path d="M543 164L532 105L471 130Z" fill="#fee9af" stroke="#fee9af"></path><path d="M471 130L463 78L428 122Z" fill="#ffe0a1" stroke="#ffe0a1"></path><path d="M428 122L435 70L373 125Z" fill="#fee2a5" stroke="#fee2a5"></path><path d="M531 75L532 105L599 103Z" fill="#ffde9e" stroke="#ffde9e"></path><path d="M543 164L586 198L599 103Z" fill="#ffe0a1" stroke="#ffe0a1"></path><path d="M663 478L677 408L580 431Z" fill="#fee9af" stroke="#fee9af"></path><path d="M666 348L721 307L641 311Z" fill="#fff3c0" stroke="#fff3c0"></path><path d="M663 478L580 431L590 475Z" fill="#fee5a8" stroke="#fee5a8"></path><path d="M532 105L463 78L471 130Z" fill="#fee2a5" stroke="#fee2a5"></path><path d="M295 109L245 171L300 163Z" fill="#ffde9e" stroke="#ffde9e"></path><path d="M534 545L592 535L590 475Z" fill="#ffde9e" stroke="#ffde9e"></path><path d="M295 109L300 163L373 125Z" fill="#ffde9e" stroke="#ffde9e"></path><path d="M300 163L245 171L282 227Z" fill="#feedb6" stroke="#feedb6"></path><path d="M193 238L191 295L239 312Z" fill="#fee5a8" stroke="#fee5a8"></path><path d="M463 78L435 70L428 122Z" fill="#feedb6" stroke="#feedb6"></path><path d="M193 238L239 312L244 220Z" fill="#fee5a8" stroke="#fee5a8"></path><path d="M160 413L240 482L256 401Z" fill="#fee9af" stroke="#fee9af"></path><path d="M289 478L281 546L372 532Z" fill="#feefb9" stroke="#feefb9"></path><path d="M160 413L256 401L227 374Z" fill="#feebb2" stroke="#feebb2"></path><path d="M191 295L185 340L239 312Z" fill="#ffe0a1" stroke="#ffe0a1"></path><path d="M655 536L663 478L590 475Z" fill="#feedb6" stroke="#feedb6"></path><path d="M599 103L586 198L675 178Z" fill="#fee7ac" stroke="#fee7ac"></path><path d="M532 105L531 75L463 78Z" fill="#fff1bd" stroke="#fff1bd"></path><path d="M471 0L430 0L435 70Z" fill="#fff1bd" stroke="#fff1bd"></path><path d="M364 50L295 109L373 125Z" fill="#feebb2" stroke="#feebb2"></path><path d="M709 437L710 368L677 408Z" fill="#fee5a8" stroke="#fee5a8"></path><path d="M677 408L710 368L666 348Z" fill="#fee9af" stroke="#fee9af"></path><path d="M189 167L193 238L244 220Z" fill="#feedb6" stroke="#feedb6"></path><path d="M119 347L160 413L185 340Z" fill="#fee5a8" stroke="#fee5a8"></path><path d="M675 178L586 198L618 224Z" fill="#fee9af" stroke="#fee9af"></path><path d="M675 178L618 224L651 258Z" fill="#feefb9" stroke="#feefb9"></path><path d="M726 250L675 178L651 258Z" fill="#ffe0a1" stroke="#ffe0a1"></path><path d="M240 482L281 546L289 478Z" fill="#ffe0a1" stroke="#ffe0a1"></path><path d="M372 532L405 600L433 536Z" fill="#feebb2" stroke="#feebb2"></path><path d="M710 368L721 307L666 348Z" fill="#feebb2" stroke="#feebb2"></path><path d="M345 600L405 600L372 532Z" fill="#fee5a8" stroke="#fee5a8"></path><path d="M534 545L553 600L592 535Z" fill="#fff1bd" stroke="#fff1bd"></path><path d="M405 600L492 600L433 536Z" fill="#fee5a8" stroke="#fee5a8"></path><path d="M663 478L709 437L677 408Z" fill="#ffe0a1" stroke="#ffe0a1"></path><path d="M790 290L764 255L721 307Z" fill="#fff1bd" stroke="#fff1bd"></path><path d="M435 70L364 50L373 125Z" fill="#fee7ac" stroke="#fee7ac"></path><path d="M430 0L364 50L435 70Z" fill="#ffde9e" stroke="#ffde9e"></path><path d="M721 307L726 250L651 258Z" fill="#feefb9" stroke="#feefb9"></path><path d="M314 600L345 600L372 532Z" fill="#feedb6" stroke="#feedb6"></path><path d="M492 600L553 600L534 545Z" fill="#fee2a5" stroke="#fee2a5"></path><path d="M592 535L655 536L590 475Z" fill="#fee5a8" stroke="#fee5a8"></path><path d="M663 478L706 471L709 437Z" fill="#feedb6" stroke="#feedb6"></path><path d="M589 600L655 536L592 535Z" fill="#fee9af" stroke="#fee9af"></path><path d="M728 524L706 471L663 478Z" fill="#ffde9e" stroke="#ffde9e"></path><path d="M784 378L721 307L710 368Z" fill="#fee7ac" stroke="#fee7ac"></path><path d="M126 311L185 340L191 295Z" fill="#fee9af" stroke="#fee9af"></path><path d="M185 340L160 413L227 374Z" fill="#fff1bd" stroke="#fff1bd"></path><path d="M240 482L241 545L281 546Z" fill="#feefb9" stroke="#feefb9"></path><path d="M189 491L241 545L240 482Z" fill="#fff3c0" stroke="#fff3c0"></path><path d="M281 546L314 600L372 532Z" fill="#fee5a8" stroke="#fee5a8"></path><path d="M364 50L286 73L295 109Z" fill="#feefb9" stroke="#feefb9"></path><path d="M295 109L233 105L245 171Z" fill="#feedb6" stroke="#feedb6"></path><path d="M245 171L189 167L244 220Z" fill="#fee7ac" stroke="#fee7ac"></path><path d="M233 105L189 167L245 171Z" fill="#fee9af" stroke="#fee9af"></path><path d="M111 235L126 311L191 295Z" fill="#fee5a8" stroke="#fee5a8"></path><path d="M233 600L314 600L281 546Z" fill="#feebb2" stroke="#feebb2"></path><path d="M717 138L657 107L675 178Z" fill="#feefb9" stroke="#feefb9"></path><path d="M675 178L657 107L599 103Z" fill="#fee9af" stroke="#fee9af"></path><path d="M599 103L605 65L531 75Z" fill="#fee9af" stroke="#fee9af"></path><path d="M160 413L189 491L240 482Z" fill="#fff1bd" stroke="#fff1bd"></path><path d="M648 61L605 65L599 103Z" fill="#fee5a8" stroke="#fee5a8"></path><path d="M471 0L435 70L463 78Z" fill="#ffde9e" stroke="#ffde9e"></path><path d="M553 600L589 600L592 535Z" fill="#ffde9e" stroke="#ffde9e"></path><path d="M286 73L233 105L295 109Z" fill="#fee5a8" stroke="#fee5a8"></path><path d="M726 250L718 176L675 178Z" fill="#fff3c0" stroke="#fff3c0"></path><path d="M111 235L191 295L193 238Z" fill="#fee5a8" stroke="#fee5a8"></path><path d="M721 307L764 255L726 250Z" fill="#feedb6" stroke="#feedb6"></path><path d="M726 250L764 255L718 176Z" fill="#feebb2" stroke="#feebb2"></path><path d="M784 378L710 368L709 437Z" fill="#fee2a5" stroke="#fee2a5"></path><path d="M471 0L463 78L531 75Z" fill="#feebb2" stroke="#feebb2"></path><path d="M314 0L255 57L286 73Z" fill="#ffde9e" stroke="#ffde9e"></path><path d="M545 0L471 0L531 75Z" fill="#fff1bd" stroke="#fff1bd"></path><path d="M126 311L119 347L185 340Z" fill="#feedb6" stroke="#feedb6"></path><path d="M120 526L165 533L189 491Z" fill="#feefb9" stroke="#feefb9"></path><path d="M782 162L717 138L718 176Z" fill="#fee9af" stroke="#fee9af"></path><path d="M718 176L717 138L675 178Z" fill="#fee9af" stroke="#fee9af"></path><path d="M657 107L648 61L599 103Z" fill="#fff1bd" stroke="#fff1bd"></path><path d="M314 0L286 73L364 50Z" fill="#fff3c0" stroke="#fff3c0"></path><path d="M286 73L255 57L233 105Z" fill="#feefb9" stroke="#feefb9"></path><path d="M233 105L172 124L189 167Z" fill="#fff3c0" stroke="#fff3c0"></path><path d="M706 66L648 61L657 107Z" fill="#fff1bd" stroke="#fff1bd"></path><path d="M605 65L545 0L531 75Z" fill="#fee2a5" stroke="#fee2a5"></path><path d="M791 425L709 437L786 464Z" fill="#fee7ac" stroke="#fee7ac"></path><path d="M791 425L784 378L709 437Z" fill="#fee7ac" stroke="#fee7ac"></path><path d="M611 0L545 0L605 65Z" fill="#ffde9e" stroke="#ffde9e"></path><path d="M195 78L172 124L233 105Z" fill="#feedb6" stroke="#feedb6"></path><path d="M107 183L111 235L193 238Z" fill="#feefb9" stroke="#feefb9"></path><path d="M430 0L347 0L364 50Z" fill="#fee5a8" stroke="#fee5a8"></path><path d="M712 600L728 524L655 536Z" fill="#fee5a8" stroke="#fee5a8"></path><path d="M655 536L728 524L663 478Z" fill="#fee7ac" stroke="#fee7ac"></path><path d="M784 378L790 290L721 307Z" fill="#feedb6" stroke="#feedb6"></path><path d="M764 255L782 162L718 176Z" fill="#ffde9e" stroke="#ffde9e"></path><path d="M165 533L241 545L189 491Z" fill="#feefb9" stroke="#feefb9"></path><path d="M193 600L233 600L241 545Z" fill="#ffe0a1" stroke="#ffe0a1"></path><path d="M241 545L233 600L281 546Z" fill="#feedb6" stroke="#feedb6"></path><path d="M107 183L193 238L189 167Z" fill="#feedb6" stroke="#feedb6"></path><path d="M126 311L70 312L119 347Z" fill="#fee7ac" stroke="#fee7ac"></path><path d="M103 489L189 491L160 413Z" fill="#fee2a5" stroke="#fee2a5"></path><path d="M347 0L314 0L364 50Z" fill="#feefb9" stroke="#feefb9"></path><path d="M255 57L195 78L233 105Z" fill="#fee9af" stroke="#fee9af"></path><path d="M242 0L195 78L255 57Z" fill="#fff1bd" stroke="#fff1bd"></path><path d="M172 124L107 183L189 167Z" fill="#fff1bd" stroke="#fff1bd"></path><path d="M589 600L676 600L655 536Z" fill="#fff1bd" stroke="#fff1bd"></path><path d="M41 358L101 416L119 347Z" fill="#feebb2" stroke="#feebb2"></path><path d="M119 347L101 416L160 413Z" fill="#feebb2" stroke="#feebb2"></path><path d="M786 464L709 437L706 471Z" fill="#ffde9e" stroke="#ffde9e"></path><path d="M784 378L826 360L790 290Z" fill="#ffde9e" stroke="#ffde9e"></path><path d="M768 552L786 464L728 524Z" fill="#feebb2" stroke="#feebb2"></path><path d="M728 524L786 464L706 471Z" fill="#ffe0a1" stroke="#ffe0a1"></path><path d="M648 61L611 0L605 65Z" fill="#feedb6" stroke="#feedb6"></path><path d="M669 0L611 0L648 61Z" fill="#fff3c0" stroke="#fff3c0"></path><path d="M781 127L706 66L717 138Z" fill="#fee7ac" stroke="#fee7ac"></path><path d="M717 138L706 66L657 107Z" fill="#fee9af" stroke="#fee9af"></path><path d="M117 113L107 183L172 124Z" fill="#feefb9" stroke="#feefb9"></path><path d="M111 235L70 312L126 311Z" fill="#feedb6" stroke="#feedb6"></path><path d="M127 600L193 600L165 533Z" fill="#ffe0a1" stroke="#ffe0a1"></path><path d="M165 533L193 600L241 545Z" fill="#fee7ac" stroke="#fee7ac"></path><path d="M855 223L782 162L764 255Z" fill="#ffde9e" stroke="#ffde9e"></path><path d="M78 229L70 312L111 235Z" fill="#feefb9" stroke="#feefb9"></path><path d="M101 416L103 489L160 413Z" fill="#fee2a5" stroke="#fee2a5"></path><path d="M64 489L103 489L101 416Z" fill="#fee2a5" stroke="#fee2a5"></path><path d="M676 600L712 600L655 536Z" fill="#fee2a5" stroke="#fee2a5"></path><path d="M825 411L784 378L791 425Z" fill="#fee7ac" stroke="#fee7ac"></path><path d="M825 411L826 360L784 378Z" fill="#ffe0a1" stroke="#ffe0a1"></path><path d="M790 290L855 223L764 255Z" fill="#fee5a8" stroke="#fee5a8"></path><path d="M107 183L78 229L111 235Z" fill="#fee5a8" stroke="#fee5a8"></path><path d="M103 489L120 526L189 491Z" fill="#fee7ac" stroke="#fee7ac"></path><path d="M314 0L242 0L255 57Z" fill="#ffde9e" stroke="#ffde9e"></path><path d="M129 62L117 113L172 124Z" fill="#fff3c0" stroke="#fff3c0"></path><path d="M821 485L825 411L791 425Z" fill="#ffde9e" stroke="#ffde9e"></path><path d="M821 485L791 425L786 464Z" fill="#fee2a5" stroke="#fee2a5"></path><path d="M840 134L781 127L782 162Z" fill="#fee7ac" stroke="#fee7ac"></path><path d="M782 162L781 127L717 138Z" fill="#fff3c0" stroke="#fff3c0"></path><path d="M712 600L768 552L728 524Z" fill="#fff1bd" stroke="#fff1bd"></path><path d="M129 62L172 124L195 78Z" fill="#fee5a8" stroke="#fee5a8"></path><path d="M107 183L43 193L78 229Z" fill="#feefb9" stroke="#feefb9"></path><path d="M706 66L669 0L648 61Z" fill="#fee5a8" stroke="#fee5a8"></path><path d="M710 0L669 0L706 66Z" fill="#ffe0a1" stroke="#ffe0a1"></path><path d="M768 552L821 485L786 464Z" fill="#fee9af" stroke="#fee9af"></path><path d="M0 354L41 358L0 286Z" fill="#feefb9" stroke="#feefb9"></path><path d="M70 312L41 358L119 347Z" fill="#feebb2" stroke="#feebb2"></path><path d="M103 489L64 489L120 526Z" fill="#fff3c0" stroke="#fff3c0"></path><path d="M900 312L857 297L900 359Z" fill="#feedb6" stroke="#feedb6"></path><path d="M826 360L857 297L790 290Z" fill="#feefb9" stroke="#feefb9"></path><path d="M857 297L826 360L900 359Z" fill="#fee9af" stroke="#fee9af"></path><path d="M41 358L44 419L101 416Z" fill="#fee2a5" stroke="#fee2a5"></path><path d="M184 0L129 62L195 78Z" fill="#ffe0a1" stroke="#ffe0a1"></path><path d="M58 135L43 193L107 183Z" fill="#fee7ac" stroke="#fee7ac"></path><path d="M44 419L64 489L101 416Z" fill="#fee5a8" stroke="#fee5a8"></path><path d="M120 526L127 600L165 533Z" fill="#fee7ac" stroke="#fee7ac"></path><path d="M242 0L184 0L195 78Z" fill="#feedb6" stroke="#feedb6"></path><path d="M790 46L710 0L706 66Z" fill="#fff1bd" stroke="#fff1bd"></path><path d="M45 539L127 600L120 526Z" fill="#feefb9" stroke="#feefb9"></path><path d="M857 297L855 223L790 290Z" fill="#fee9af" stroke="#fee9af"></path><path d="M781 127L790 46L706 66Z" fill="#fee9af" stroke="#fee9af"></path><path d="M58 135L107 183L117 113Z" fill="#fff1bd" stroke="#fff1bd"></path><path d="M78 229L0 286L70 312Z" fill="#fee9af" stroke="#fee9af"></path><path d="M768 552L824 549L821 485Z" fill="#feebb2" stroke="#feebb2"></path><path d="M712 600L777 600L768 552Z" fill="#feefb9" stroke="#feefb9"></path><path d="M855 223L849 171L782 162Z" fill="#fee5a8" stroke="#fee5a8"></path><path d="M67 47L117 113L129 62Z" fill="#ffe0a1" stroke="#ffe0a1"></path><path d="M67 47L58 135L117 113Z" fill="#fee7ac" stroke="#fee7ac"></path><path d="M777 600L824 549L768 552Z" fill="#fff3c0" stroke="#fff3c0"></path><path d="M900 359L826 360L825 411Z" fill="#fff1bd" stroke="#fff1bd"></path><path d="M849 171L840 134L782 162Z" fill="#fee5a8" stroke="#fee5a8"></path><path d="M840 134L790 46L781 127Z" fill="#fee7ac" stroke="#fee7ac"></path><path d="M41 358L0 354L44 419Z" fill="#fff3c0" stroke="#fff3c0"></path><path d="M0 493L45 539L64 489Z" fill="#fee2a5" stroke="#fee2a5"></path><path d="M0 286L41 358L70 312Z" fill="#feebb2" stroke="#feebb2"></path><path d="M0 286L78 229L0 249Z" fill="#fee9af" stroke="#fee9af"></path><path d="M0 249L78 229L43 193Z" fill="#fff1bd" stroke="#fff1bd"></path><path d="M855 223L900 170L849 171Z" fill="#fee2a5" stroke="#fee2a5"></path><path d="M849 171L900 121L840 134Z" fill="#ffe0a1" stroke="#ffe0a1"></path><path d="M857 297L900 223L855 223Z" fill="#feedb6" stroke="#feedb6"></path><path d="M900 359L825 411L900 425Z" fill="#ffe0a1" stroke="#ffe0a1"></path><path d="M0 164L0 249L43 193Z" fill="#fee9af" stroke="#fee9af"></path><path d="M900 425L825 411L821 485Z" fill="#fff3c0" stroke="#fff3c0"></path><path d="M0 437L64 489L44 419Z" fill="#fee2a5" stroke="#fee2a5"></path><path d="M64 489L45 539L120 526Z" fill="#feefb9" stroke="#feefb9"></path><path d="M0 354L0 437L44 419Z" fill="#ffe0a1" stroke="#ffe0a1"></path><path d="M184 0L121 0L129 62Z" fill="#ffde9e" stroke="#ffde9e"></path><path d="M58 135L0 164L43 193Z" fill="#fee9af" stroke="#fee9af"></path><path d="M900 492L900 425L821 485Z" fill="#ffe0a1" stroke="#ffe0a1"></path><path d="M900 312L900 223L857 297Z" fill="#fff1bd" stroke="#fff1bd"></path><path d="M825 0L786 0L790 46Z" fill="#feedb6" stroke="#feedb6"></path><path d="M777 600L827 600L824 549Z" fill="#feedb6" stroke="#feedb6"></path><path d="M900 533L900 492L821 485Z" fill="#feebb2" stroke="#feebb2"></path><path d="M856 40L790 46L840 134Z" fill="#ffe0a1" stroke="#ffe0a1"></path><path d="M790 46L786 0L710 0Z" fill="#fff1bd" stroke="#fff1bd"></path><path d="M121 0L67 47L129 62Z" fill="#fee5a8" stroke="#fee5a8"></path><path d="M0 123L0 164L58 135Z" fill="#fff1bd" stroke="#fff1bd"></path><path d="M0 437L0 493L64 489Z" fill="#fee7ac" stroke="#fee7ac"></path><path d="M900 223L900 170L855 223Z" fill="#fee5a8" stroke="#fee5a8"></path><path d="M900 533L821 485L824 549Z" fill="#fff3c0" stroke="#fff3c0"></path><path d="M0 600L41 600L45 539Z" fill="#ffde9e" stroke="#ffde9e"></path><path d="M45 539L41 600L127 600Z" fill="#fee2a5" stroke="#fee2a5"></path><path d="M0 493L0 527L45 539Z" fill="#fff3c0" stroke="#fff3c0"></path><path d="M67 47L0 123L58 135Z" fill="#fff1bd" stroke="#fff1bd"></path><path d="M900 600L900 533L824 549Z" fill="#fff1bd" stroke="#fff1bd"></path><path d="M900 170L900 121L849 171Z" fill="#fee7ac" stroke="#fee7ac"></path><path d="M900 74L856 40L840 134Z" fill="#feefb9" stroke="#feefb9"></path><path d="M856 40L825 0L790 46Z" fill="#fee9af" stroke="#fee9af"></path><path d="M121 0L60 0L67 47Z" fill="#fff1bd" stroke="#fff1bd"></path><path d="M67 47L0 48L0 123Z" fill="#feefb9" stroke="#feefb9"></path><path d="M900 121L900 74L840 134Z" fill="#feebb2" stroke="#feebb2"></path><path d="M856 40L900 0L825 0Z" fill="#feedb6" stroke="#feedb6"></path><path d="M0 527L0 600L45 539Z" fill="#fee5a8" stroke="#fee5a8"></path><path d="M60 0L0 48L67 47Z" fill="#fee2a5" stroke="#fee2a5"></path><path d="M827 600L900 600L824 549Z" fill="#ffe0a1" stroke="#ffe0a1"></path><path d="M60 0L0 0L0 48Z" fill="#fee7ac" stroke="#fee7ac"></path><path d="M900 74L900 0L856 40Z" fill="#fff3c0" stroke="#fff3c0"></path></g></svg>