<svg id="visual" viewBox="0 0 900 600" width="900" height="600" xmlns="http://www.w3.org/2000/svg" xmlns:xlink="http://www.w3.org/1999/xlink" version="1.1"><rect width="900" height="600" fill="#fff3c0"></rect><g><g transform="translate(364 454)"><path d="M0 -94.6L81.9 -47.3L81.9 47.3L0 94.6L-81.9 47.3L-81.9 -47.3Z" fill="#ffde9e"></path></g><g transform="translate(88 543)"><path d="M0 -67L58 -33.5L58 33.5L0 67L-58 33.5L-58 -33.5Z" fill="#ffde9e"></path></g><g transform="translate(843 39)"><path d="M0 -93L80.5 -46.5L80.5 46.5L0 93L-80.5 46.5L-80.5 -46.5Z" fill="#ffde9e"></path></g><g transform="translate(228 212)"><path d="M0 -30L26 -15L26 15L0 30L-26 15L-26 -15Z" fill="#ffde9e"></path></g><g transform="translate(837 245)"><path d="M0 -77L66.7 -38.5L66.7 38.5L0 77L-66.7 38.5L-66.7 -38.5Z" fill="#ffde9e"></path></g><g transform="translate(831 460)"><path d="M0 -40L34.6 -20L34.6 20L0 40L-34.6 20L-34.6 -20Z" fill="#ffde9e"></path></g><g transform="translate(507 251)"><path d="M0 -90L77.9 -45L77.9 45L0 90L-77.9 45L-77.9 -45Z" fill="#ffde9e"></path></g><g transform="translate(37 56)"><path d="M0 -32L27.7 -16L27.7 16L0 32L-27.7 16L-27.7 -16Z" fill="#ffde9e"></path></g><g transform="translate(642 506)"><path d="M0 -60L52 -30L52 30L0 60L-52 30L-52 -30Z" fill="#ffde9e"></path></g><g transform="translate(45 314)"><path d="M0 -47L40.7 -23.5L40.7 23.5L0 47L-40.7 23.5L-40.7 -23.5Z" fill="#ffde9e"></path></g><g transform="translate(567 7)"><path d="M0 -29L25.1 -14.5L25.1 14.5L0 29L-25.1 14.5L-25.1 -14.5Z" fill="#ffde9e"></path></g><g transform="translate(364 21)"><path d="M0 -44L38.1 -22L38.1 22L0 44L-38.1 22L-38.1 -22Z" fill="#ffde9e"></path></g></g></svg>