<svg id="visual" viewBox="0 0 900 600" width="900" height="600" xmlns="http://www.w3.org/2000/svg" xmlns:xlink="http://www.w3.org/1999/xlink" version="1.1"><rect width="900" height="600" fill="#fff3c0"></rect><g><g transform="translate(546 336)"><path d="M0 -91.7L79.4 -45.8L79.4 45.8L0 91.7L-79.4 45.8L-79.4 -45.8Z" fill="#ffde9e"></path></g><g transform="translate(870 271)"><path d="M0 -52L45 -26L45 26L0 52L-45 26L-45 -26Z" fill="#ffde9e"></path></g><g transform="translate(12 368)"><path d="M0 -79L68.4 -39.5L68.4 39.5L0 79L-68.4 39.5L-68.4 -39.5Z" fill="#ffde9e"></path></g><g transform="translate(88 183)"><path d="M0 -42L36.4 -21L36.4 21L0 42L-36.4 21L-36.4 -21Z" fill="#ffde9e"></path></g><g transform="translate(702 158)"><path d="M0 -75L65 -37.5L65 37.5L0 75L-65 37.5L-65 -37.5Z" fill="#ffde9e"></path></g></g></svg>