<svg id="visual" viewBox="0 0 900 600" width="900" height="600" xmlns="http://www.w3.org/2000/svg" xmlns:xlink="http://www.w3.org/1999/xlink" version="1.1"><path d="M0 157L21.5 152C43 147 86 137 128.8 124C171.7 111 214.3 95 257.2 103C300 111 343 143 385.8 153C428.7 163 471.3 151 514.2 141C557 131 600 123 642.8 119C685.7 115 728.3 115 771.2 114C814 113 857 111 878.5 110L900 109L900 0L878.5 0C857 0 814 0 771.2 0C728.3 0 685.7 0 642.8 0C600 0 557 0 514.2 0C471.3 0 428.7 0 385.8 0C343 0 300 0 257.2 0C214.3 0 171.7 0 128.8 0C86 0 43 0 21.5 0L0 0Z" fill="#fff3c0"></path><path d="M0 283L21.5 274C43 265 86 247 128.8 227C171.7 207 214.3 185 257.2 191C300 197 343 231 385.8 237C428.7 243 471.3 221 514.2 213C557 205 600 211 642.8 221C685.7 231 728.3 245 771.2 247C814 249 857 239 878.5 234L900 229L900 107L878.5 108C857 109 814 111 771.2 112C728.3 113 685.7 113 642.8 117C600 121 557 129 514.2 139C471.3 149 428.7 161 385.8 151C343 141 300 109 257.2 101C214.3 93 171.7 109 128.8 122C86 135 43 145 21.5 150L0 155Z" fill="#feecb5"></path><path d="M0 445L21.5 431C43 417 86 389 128.8 384C171.7 379 214.3 397 257.2 399C300 401 343 387 385.8 388C428.7 389 471.3 405 514.2 398C557 391 600 361 642.8 361C685.7 361 728.3 391 771.2 421C814 451 857 481 878.5 496L900 511L900 227L878.5 232C857 237 814 247 771.2 245C728.3 243 685.7 229 642.8 219C600 209 557 203 514.2 211C471.3 219 428.7 241 385.8 235C343 229 300 195 257.2 189C214.3 183 171.7 205 128.8 225C86 245 43 263 21.5 272L0 281Z" fill="#fee5a9"></path><path d="M0 601L21.5 601C43 601 86 601 128.8 601C171.7 601 214.3 601 257.2 601C300 601 343 601 385.8 601C428.7 601 471.3 601 514.2 601C557 601 600 601 642.8 601C685.7 601 728.3 601 771.2 601C814 601 857 601 878.5 601L900 601L900 509L878.5 494C857 479 814 449 771.2 419C728.3 389 685.7 359 642.8 359C600 359 557 389 514.2 396C471.3 403 428.7 387 385.8 386C343 385 300 399 257.2 397C214.3 395 171.7 377 128.8 382C86 387 43 415 21.5 429L0 443Z" fill="#ffde9e"></path></svg>