<svg id="visual" viewBox="0 0 900 600" width="900" height="600" xmlns="http://www.w3.org/2000/svg" xmlns:xlink="http://www.w3.org/1999/xlink" version="1.1"><rect x="0" y="0" width="900" height="600" fill="#fff3c0"></rect><g fill="#ffde9e"><path d="M0 -114.2L25.6 -35.3L108.6 -35.3L41.5 13.5L67.1 92.4L0 43.6L-67.1 92.4L-41.5 13.5L-108.6 -35.3L-25.6 -35.3Z" transform="translate(371 429)"></path><path d="M0 -35.9L8.1 -11.1L34.1 -11.1L13 4.2L21.1 29L0 13.7L-21.1 29L-13 4.2L-34.1 -11.1L-8.1 -11.1Z" transform="translate(364 98)"></path><path d="M0 -77.4L17.4 -23.9L73.6 -23.9L28.1 9.1L45.5 62.6L0 29.6L-45.5 62.6L-28.1 9.1L-73.6 -23.9L-17.4 -23.9Z" transform="translate(640 159)"></path><path d="M0 -105.7L23.7 -32.7L100.5 -32.7L38.4 12.5L62.1 85.5L0 40.4L-62.1 85.5L-38.4 12.5L-100.5 -32.7L-23.7 -32.7Z" transform="translate(860 372)"></path></g></svg>